# Blender 3.3.1
# www.blender.org
o 1
v -0.467823 -0.106555 0.689997
v -0.043359 -0.467085 0.479055
v 0.070569 0.463925 0.507490
v 0.555178 -0.142435 0.482132
v -0.575091 -0.041388 -0.013716
v -0.267282 -0.643785 -0.399313
v -0.119335 0.749270 -0.205641
v 0.467753 0.017077 -0.550923
v -0.250781 0.035644 -0.683626
vn 0.3913 -0.0759 0.9171
vn 0.7879 0.6147 0.0362
vn -0.8802 -0.1649 -0.4451
vn -0.6395 -0.7683 0.0263
vn -0.6889 0.7046 0.1703
vn 0.6662 -0.7455 -0.0199
vn -0.8429 0.3979 -0.3623
vn 0.1580 -0.3844 -0.9095
vn 0.1675 0.5272 -0.8331
vn 0.0122 -0.0320 0.9994
vn 0.7814 0.6233 0.0301
vn -0.7522 -0.5821 0.3089
vn -0.7439 0.5282 0.4094
vn 0.4703 -0.8653 -0.1734
vt 0.302780 0.808150
vt 0.770994 0.998154
vt 0.431023 0.479874
vt 0.071486 0.782587
vt 0.993049 0.926438
vt 0.509431 0.479874
vt 0.302780 0.491431
vt 0.085025 0.042641
vt 0.731704 0.580985
vt 0.000000 0.525970
vt 0.389802 0.000000
vt 0.777426 0.478914
vt 0.731704 0.719849
vt 0.389802 0.757936
vt 0.389802 0.136345
vt 0.993049 0.564127
vt 0.000000 0.344420
vt 0.731704 0.891667
vt 0.389802 0.415653
vt 0.777426 0.064442
vt 0.806968 0.479874
vt 0.468769 1.000000
vt 0.547704 0.000000
vt 0.218111 0.491431
s 0
f 2/4/1 3/7/1 1/1/1
f 3/8/2 8/19/2 7/17/2
f 6/16/3 5/13/3 9/21/3
f 5/13/4 2/5/4 1/2/4
f 3/9/5 5/14/5 1/3/5
f 8/20/6 2/6/6 6/15/6
f 5/14/7 7/18/7 9/22/7
f 8/20/8 6/15/8 9/23/8
f 7/17/9 8/19/9 9/24/9
f 2/4/10 4/10/10 3/7/10
f 3/8/11 4/11/11 8/19/11
f 5/13/12 6/16/12 2/5/12
f 3/9/13 7/18/13 5/14/13
f 8/20/14 4/12/14 2/6/14
