# Blender 3.3.1
# www.blender.org
o 3
v -0.041408 -0.042092 0.440458
v 0.299084 -0.402417 0.408277
v -0.077884 0.245681 0.330712
v 0.349016 -0.108865 0.376028
v -0.142089 -0.372765 -0.025764
v 0.257068 -0.310534 -0.100068
v -0.315804 0.414572 -0.368685
v 0.333355 0.254970 -0.026504
v -0.019205 -0.184088 -0.524067
v -0.260952 0.229109 0.392434
v -0.278129 -0.139912 -0.023573
v -0.446336 0.295918 -0.139476
vn 0.4640 0.3664 0.8065
vn 0.1405 0.9723 0.1870
vn 0.0840 -0.9386 -0.3347
vn -0.5817 -0.5989 0.5504
vn -0.9717 -0.0340 0.2339
vn 0.9874 -0.1198 -0.1033
vn -0.8735 -0.3431 -0.3453
vn 0.8316 -0.0401 -0.5539
vn 0.5009 0.4414 -0.7445
vn -0.0130 0.1114 0.9937
vn 0.4853 0.6580 0.5758
vn 0.1175 -0.9755 -0.1860
vn -0.5947 -0.3542 0.7217
vn 0.9608 -0.1860 -0.2055
vn -0.9173 -0.2783 0.2848
vn -0.6766 -0.4217 -0.6036
vn -0.0427 0.9894 0.1391
vn 0.2783 -0.7242 0.6309
vn -0.7071 -0.4077 -0.5778
vn -0.2759 0.9087 0.3133
vt 0.000000 0.249686
vt 0.647136 0.254153
vt 0.644524 0.504077
vt 0.006345 0.000000
vt 0.723303 1.000000
vt 0.463034 0.534802
vt 0.650191 0.131091
vt 0.102609 0.364655
vt 0.104291 0.084821
vt 0.583221 0.517675
vt 0.000000 0.864876
vt 0.644524 0.697914
vt 0.920864 0.357485
vt 0.237849 0.797278
vt 0.379125 0.389650
vt 0.840173 0.766735
vt 0.113018 0.520704
vt 0.644524 0.000000
vt 0.237849 0.520704
vt 0.336290 0.516832
vt 0.336290 0.221542
vt 0.644524 0.379187
vt 0.840173 0.504077
vt 0.146320 0.864876
vt 0.336290 0.157949
vt 0.030358 0.424916
vt 0.670313 0.078613
vt 0.910657 0.222917
vt 0.187781 0.757125
vt 0.920864 0.000000
vt 0.146320 0.632617
vt 0.191459 0.520704
s 0
f 2/4/1 3/8/1 1/1/1
f 3/8/2 8/21/2 7/20/2
f 6/16/3 5/12/3 9/23/3
f 5/13/4 2/3/4 1/2/4
f 3/7/5 5/13/5 1/2/5
f 8/22/6 2/6/6 6/15/6
f 5/11/7 7/17/7 9/24/7
f 8/22/8 6/15/8 9/25/8
f 7/18/9 8/22/9 9/25/9
f 2/4/10 4/9/10 3/8/10
f 3/8/11 4/9/11 8/21/11
f 5/12/12 6/16/12 2/5/12
f 3/7/13 11/28/13 5/13/13
f 8/22/14 4/10/14 2/6/14
f 10/27/15 12/30/15 11/28/15
f 7/19/16 11/29/16 12/31/16
f 3/8/17 12/32/17 10/26/17
f 3/7/18 10/27/18 11/28/18
f 7/19/19 5/14/19 11/29/19
f 3/8/20 7/20/20 12/32/20
