# Blender 3.3.1
# www.blender.org
o 4
v 0.015026 0.539904 0.159117
v -0.230332 -0.485417 0.447415
v -0.626540 -0.090023 -0.030053
v -0.100913 -0.173577 -0.482092
v 0.637037 -0.122877 -0.345850
v -0.011264 0.504475 -0.208341
v 0.243997 0.230042 0.190567
v 0.041813 0.020760 0.598485
v 0.590297 -0.092383 -0.235207
vn -0.5708 0.3712 -0.7324
vn -0.5612 0.3457 0.7520
vn 0.1205 -0.9461 -0.3006
vn -0.6976 0.7162 -0.0191
vn 0.1463 0.3537 -0.9239
vn 0.6774 0.7260 -0.1185
vn -0.4261 -0.8382 -0.3405
vn 0.6796 -0.5199 0.5176
vn 0.8299 0.2076 0.5178
vn 0.7780 0.6072 0.1613
vn 0.6269 0.5219 0.5785
vn 0.6602 -0.6047 0.4455
vn 0.7815 0.5962 0.1842
vn -0.8414 0.3231 0.4331
vt 0.000000 0.466307
vt 0.077719 0.562710
vt 0.745666 0.568807
vt 0.745666 0.568807
vt 1.000000 0.000000
vt 0.404635 0.947087
vt 0.745666 0.997907
vt 0.412029 0.466307
vt 0.412029 0.511492
vt 0.305608 0.156350
vt 0.469165 0.196042
vt 0.745666 0.000000
vt 0.094419 0.000000
vt 0.341374 0.973344
vt 1.000000 0.577270
vt 0.018853 0.349514
vt 0.000000 0.715942
vt 0.602648 0.579512
vt 0.243450 0.634316
vt 0.745666 0.114332
vt 0.343687 0.466307
vt 0.451197 0.688372
vt 0.963014 0.532558
vt 0.343687 0.915452
s 0
f 4/10/1 3/8/1 6/16/1
f 3/7/2 2/6/2 1/3/2
f 5/12/3 2/4/3 4/11/3
f 3/8/4 1/1/4 6/16/4
f 5/13/5 4/10/5 6/16/5
f 1/2/6 5/14/6 6/17/6
f 3/9/7 4/11/7 2/4/7
f 2/5/8 9/23/8 8/20/8
f 9/24/9 7/19/9 8/21/9
f 1/2/10 9/24/10 5/14/10
f 1/3/11 8/22/11 7/18/11
f 2/5/12 5/15/12 9/23/12
f 1/2/13 7/19/13 9/24/13
f 1/3/14 2/6/14 8/22/14
