# Blender 3.3.1
# www.blender.org
o Cube
v -0.703819 1.000000 0.405477
v -1.000000 0.526286 0.491768
v -0.405477 1.000000 0.703819
v -0.491768 0.526286 1.000000
v -0.405477 1.000000 -0.703819
v -0.491768 0.526286 -1.000000
v -0.703819 1.000000 -0.405477
v -1.000000 0.526286 -0.491768
v 0.405477 1.000000 0.703819
v 0.491768 0.526286 1.000000
v 0.703819 1.000000 0.405477
v 1.000000 0.526286 0.491768
v 0.703819 1.000000 -0.405477
v 1.000000 0.526286 -0.491768
v 0.405477 1.000000 -0.703819
v 0.491768 0.526286 -1.000000
v -0.488088 -1.000000 0.903259
v -0.491768 -0.866868 1.000000
v -1.000000 -0.866868 0.491768
v -0.903259 -1.000000 0.488088
v -0.903259 -1.000000 -0.488088
v -1.000000 -0.866868 -0.491768
v -0.491768 -0.866868 -1.000000
v -0.488088 -1.000000 -0.903259
v 0.903259 -1.000000 0.488088
v 1.000000 -0.866868 0.491768
v 0.491768 -0.866868 1.000000
v 0.488088 -1.000000 0.903259
v 0.488088 -1.000000 -0.903259
v 0.491768 -0.866868 -1.000000
v 1.000000 -0.866868 -0.491768
v 0.903259 -1.000000 -0.488088
v -0.466065 1.039446 0.850089
v -0.850089 1.039446 0.466065
v -0.850089 1.039446 -0.466065
v -0.466065 1.039446 -0.850089
v 0.466065 1.039446 -0.850089
v 0.850089 1.039446 -0.466065
v 0.850089 1.039446 0.466065
v 0.466065 1.039446 0.850089
v -0.405477 0.861573 0.703819
v -0.703819 0.861573 0.405477
v -0.703819 0.861573 -0.405477
v -0.405477 0.861573 -0.703819
v 0.405477 0.861573 -0.703819
v 0.703819 0.861573 -0.405477
v 0.703819 0.861573 0.405477
v 0.405477 0.861573 0.703819
v -1.000000 0.602123 -0.528160
v -1.000000 0.602123 0.528160
v -0.528160 0.602123 1.000000
v 0.528160 0.602123 1.000000
v 1.000000 0.602123 0.528160
v 1.000000 0.602123 -0.528160
v 0.528160 0.602123 -1.000000
v -0.528160 0.602123 -1.000000
v -1.000000 -0.903259 0.528160
v -1.000000 -0.903259 -0.528160
v -0.528160 -0.903259 -1.000000
v 0.528160 -0.903259 -1.000000
v 1.000000 -0.903259 -0.528160
v 1.000000 -0.903259 0.528160
v 0.528160 -0.903259 1.000000
v -0.528160 -0.903259 1.000000
v -0.990000 0.526286 -0.491768
v -0.990000 0.526286 0.491768
v -0.491768 0.526286 0.990000
v 0.491768 0.526286 0.990000
v 0.990000 0.526286 0.491768
v 0.990000 0.526286 -0.491768
v 0.491768 0.526286 -0.990000
v -0.491768 0.526286 -0.990000
v -0.990000 -0.866868 0.491768
v -0.990000 -0.866868 -0.491768
v -0.491768 -0.866868 -0.990000
v 0.491768 -0.866868 -0.990000
v 0.990000 -0.866868 -0.491768
v 0.990000 -0.866868 0.491768
v 0.491768 -0.866868 0.990000
v -0.491768 -0.866868 0.990000
vn 1.0000 -0.0000 -0.0000
vn -0.0000 1.0000 -0.0000
vn -0.0000 -0.0000 1.0000
vn -0.7071 -0.0000 -0.7071
vn 0.7071 -0.0000 0.7071
vn 0.7071 -0.0000 -0.7071
vn -0.0000 -1.0000 -0.0000
vn -0.6689 0.3243 0.6689
vn -0.6689 0.3243 -0.6689
vn 0.6689 0.3243 -0.6689
vn 0.6689 0.3243 0.6689
vn -0.9460 0.3243 -0.0000
vn -0.0000 0.3243 0.9460
vn 0.9460 0.3243 -0.0000
vn -0.0000 0.3243 -0.9460
vn -0.5000 -0.7071 0.5000
vn -0.5000 -0.7071 -0.5000
vn 0.5000 -0.7071 -0.5000
vn 0.5000 -0.7071 0.5000
vn -0.7071 -0.7071 -0.0000
vn -0.0000 -0.7071 -0.7071
vn 0.7071 -0.7071 -0.0000
vn -0.0000 -0.7071 0.7071
vn -0.7071 -0.0000 0.7071
vn 0.1841 0.9655 -0.1841
vn 0.1841 0.9655 0.1841
vn -0.1841 0.9655 0.1841
vn -0.1841 0.9655 -0.1841
vn 0.2604 0.9655 -0.0000
vn -0.0000 0.9655 -0.2604
vn -0.2604 0.9655 -0.0000
vn -0.0000 0.9655 0.2604
vn -0.0000 -0.0000 -1.0000
vn -1.0000 -0.0000 -0.0000
vt 0.904333 0.000000
vt 0.564190 0.376485
vt 0.172526 0.701655
vt 0.200300 0.874181
vt 0.821090 0.601425
vt 0.911491 0.244218
vt 0.616523 0.428819
vt 0.906229 0.052333
vt 0.918508 0.244218
vt 0.250597 0.612504
vt 0.209071 0.701655
vt 0.617027 0.843648
vt 0.369604 0.428819
vt 0.205563 0.701655
vt 0.907983 0.244218
vt 0.601425 0.089151
vt 0.172526 0.843908
vt 0.421937 0.376485
vt 0.615131 0.895981
vt 0.913246 0.244218
vt 0.648565 0.601425
vt 0.200300 0.701655
vt 0.616523 0.571071
vt 0.906229 0.194586
vt 0.209071 0.874181
vt 0.250597 0.439978
vt 0.913246 0.244218
vt 0.617027 0.791315
vt 0.564190 0.623404
vt 0.904333 0.246919
vt 0.916754 0.244218
vt 0.701158 0.250597
vt 0.203809 0.874181
vt 0.615131 0.649062
vt 0.421937 0.623404
vt 0.617027 0.649062
vt 0.203809 0.701655
vt 0.873683 0.250597
vt 0.909737 0.244218
vt 0.369604 0.571071
vt 0.617027 0.701396
vt 0.915000 0.244218
vt 0.205563 0.874181
vt 0.601425 0.261677
vt 0.333858 0.261031
vt 0.207317 0.874181
vt 0.006379 0.612504
vt 0.918508 0.000000
vt 0.911491 0.000000
vt 0.198546 0.874181
vt 0.821090 0.357207
vt 0.261031 0.333858
vt 0.089796 0.333858
vt 0.198546 0.701655
vt 0.913246 0.000000
vt 0.648565 0.357207
vt 0.907983 0.000000
vt 0.357207 0.089151
vt 0.207317 0.874181
vt 0.016970 0.261031
vt 0.261031 0.016970
vt 0.198546 0.874181
vt 0.701158 0.006379
vt 0.916754 0.000000
vt 0.913246 0.000000
vt 0.006379 0.439978
vt 0.207317 0.701655
vt 0.333858 0.089796
vt 0.016970 0.089796
vt 0.207317 0.701655
vt 0.357207 0.261677
vt 0.915000 0.000000
vt 0.909737 0.000000
vt 0.873683 0.006379
vt 0.198546 0.701655
vt 0.089796 0.016970
vt 0.341506 0.607996
vt 0.642181 0.418191
vt 0.816582 0.692334
vt 0.343946 0.675359
vt 0.574818 0.350828
vt 0.694774 0.026296
vt 0.653073 0.692334
vt 0.411310 0.350828
vt 0.692334 0.093660
vt 0.343946 0.418191
vt 0.692334 0.257168
vt 0.343946 0.581699
vt 0.694774 0.324531
vt 0.869175 0.341506
vt 0.411310 0.649062
vt 0.343946 0.377124
vt 0.705666 0.341506
vt 0.574818 0.649062
vt 0.341506 0.444487
vt 0.642181 0.581699
vt 0.560104 0.765360
vt 0.881963 0.052333
vt 0.507770 0.713027
vt 0.196792 0.701655
vt 0.880067 0.000000
vt 0.365518 0.713027
vt 0.590865 0.895981
vt 0.196792 0.843908
vt 0.313185 0.765360
vt 0.592761 0.843648
vt 0.313185 0.907613
vt 0.592761 0.701396
vt 0.365518 0.959946
vt 0.641293 0.649062
vt 0.590865 0.649062
vt 0.507770 0.959946
vt 0.880067 0.246919
vt 0.641293 0.791315
vt 0.560104 0.907613
vt 0.881963 0.194586
vt 0.617717 0.000000
vt 0.642181 0.614719
vt 0.266890 0.701655
vt 0.827474 0.614719
vt 0.263891 0.618888
vt 0.263891 0.433595
vt 0.266890 0.350828
vt 0.694774 0.263892
vt 0.617717 0.350828
vt 0.880067 0.263892
vt 0.614719 0.268060
vt 0.614719 0.082767
vt 0.268060 0.350828
vt 0.002998 0.701655
vt 0.827474 0.350828
vt 0.353826 0.000000
vt 0.082767 0.350828
vt 0.642181 0.350828
vt 0.000000 0.268060
vt 0.350828 0.082767
vt 0.000000 0.082767
vt 0.350828 0.268060
vt 0.353826 0.350828
vt 0.082767 0.000000
vt 0.880067 0.000000
vt 0.002998 0.350828
vt 0.268060 0.000000
vt 0.694774 0.000000
vt 0.350828 0.082767
vt 0.000000 0.433595
vt 0.350828 0.268060
vt 0.000000 0.618888
vt 0.915000 0.244218
vt 0.000000 0.945873
vt 0.202055 0.701655
vt 0.172526 0.945873
vt 0.202054 0.874181
vt 0.909737 0.244218
vt 0.827474 0.595046
vt 0.920262 0.244218
vt 0.210825 0.701655
vt 1.000000 0.595046
vt 0.210825 0.874181
vt 0.911491 0.244218
vt 0.814707 0.936552
vt 0.918508 0.244218
vt 0.202055 0.874181
vt 0.987233 0.936552
vt 0.907983 0.244218
vt 0.202055 0.701655
vt 0.203809 0.874181
vt 0.642181 0.936552
vt 0.916754 0.244218
vt 0.906229 0.244218
vt 0.203809 0.701655
vt 0.814707 0.936552
vt 0.172526 0.701655
vt 0.196792 0.874181
vt 0.909737 0.000000
vt 0.196792 0.701655
vt 0.915000 0.000000
vt 0.000000 0.701655
vt 0.814707 0.692334
vt 0.906229 0.000000
vt 0.205563 0.874181
vt 0.642181 0.692334
vt 0.205563 0.701655
vt 0.916754 0.000000
vt 0.987233 0.692334
vt 0.200300 0.701655
vt 0.907983 0.000000
vt 0.814707 0.692334
vt 0.200300 0.874181
vt 0.918508 0.000000
vt 1.000000 0.350828
vt 0.209071 0.701655
vt 0.911491 0.000000
vt 0.827474 0.350828
vt 0.209071 0.874181
vt 0.920262 0.000000
s 0
f 6/15/1 75/180/1 23/57/1
f 19/50/2 74/176/2 22/54/2
f 5/12/3 45/108/3 15/41/3
f 22/55/3 65/149/3 8/20/3
f 59/136/4 49/117/4 56/128/4
f 63/146/5 53/123/5 52/122/5
f 61/139/6 55/127/6 54/125/6
f 16/43/7 72/171/7 6/14/7
f 33/77/8 50/119/8 51/121/8
f 35/82/9 56/128/9 49/117/9
f 37/87/10 54/125/10 55/127/10
f 39/92/11 52/122/11 53/123/11
f 35/83/12 50/120/12 34/79/12
f 33/77/13 52/122/13 40/95/13
f 54/126/14 39/93/14 53/124/14
f 56/128/15 37/87/15 55/127/15
f 32/76/7 28/68/7 20/52/7
f 17/45/16 57/129/16 20/52/16
f 21/53/17 59/135/17 24/60/17
f 29/69/18 61/140/18 32/76/18
f 25/61/19 63/145/19 28/68/19
f 58/133/20 20/52/20 57/129/20
f 60/137/21 24/60/21 59/135/21
f 62/143/22 32/76/22 61/140/22
f 64/147/23 28/68/23 63/145/23
f 51/121/24 57/130/24 64/148/24
f 1/2/25 33/78/25 3/7/25
f 5/13/26 35/84/26 7/18/26
f 13/35/27 37/88/27 15/40/27
f 9/23/28 39/94/28 11/29/28
f 7/18/29 34/81/29 1/2/29
f 3/7/30 40/96/30 9/23/30
f 11/29/31 38/91/31 13/35/31
f 15/40/32 36/86/32 5/13/32
f 43/102/2 41/97/2 47/112/2
f 9/24/33 41/98/33 3/8/33
f 11/30/4 48/116/4 9/24/4
f 7/19/5 44/106/5 5/12/5
f 13/36/34 47/114/34 11/28/34
f 1/3/1 43/104/1 7/17/1
f 15/41/24 46/111/24 13/34/24
f 3/8/6 42/101/6 1/1/6
f 2/5/34 49/118/34 8/21/34
f 10/26/3 51/121/3 4/10/3
f 14/38/1 53/124/1 12/32/1
f 6/16/33 55/127/33 16/44/33
f 19/51/34 58/134/34 57/131/34
f 23/58/33 60/138/33 59/136/33
f 31/74/1 62/144/1 61/141/1
f 27/66/3 64/148/3 63/146/3
f 4/10/3 64/148/3 18/47/3
f 2/5/34 57/131/34 50/120/34
f 10/26/3 63/146/3 52/122/3
f 8/21/34 58/134/34 22/56/34
f 6/16/33 59/136/33 56/128/33
f 16/44/33 60/138/33 30/71/33
f 12/32/1 62/144/1 26/63/1
f 14/38/1 61/141/1 54/126/1
f 72/172/33 76/182/33 75/179/33
f 66/152/34 74/178/34 73/173/34
f 70/164/1 78/188/1 77/185/1
f 68/158/3 80/194/3 79/191/3
f 23/59/2 76/183/2 30/70/2
f 30/72/34 71/169/34 16/42/34
f 31/75/2 78/189/2 26/62/2
f 26/64/33 69/162/33 12/31/33
f 27/67/2 80/195/2 18/46/2
f 8/22/7 66/153/7 2/4/7
f 14/39/3 77/187/3 31/73/3
f 18/48/1 67/156/1 4/9/1
f 4/11/7 68/159/7 10/25/7
f 2/6/33 73/175/33 19/49/33
f 12/33/7 70/166/7 14/37/7
f 10/27/34 79/193/34 27/65/34
f 6/15/1 72/170/1 75/180/1
f 19/50/2 73/174/2 74/176/2
f 5/12/3 44/106/3 45/108/3
f 22/55/3 74/177/3 65/149/3
f 59/136/4 58/132/4 49/117/4
f 63/146/5 62/142/5 53/123/5
f 61/139/6 60/138/6 55/127/6
f 16/43/7 71/167/7 72/171/7
f 33/77/8 34/80/8 50/119/8
f 35/82/9 36/85/9 56/128/9
f 37/87/10 38/89/10 54/125/10
f 39/92/11 40/95/11 52/122/11
f 35/83/12 49/118/12 50/120/12
f 33/77/13 51/121/13 52/122/13
f 54/126/14 38/90/14 39/93/14
f 56/128/15 36/85/15 37/87/15
f 20/52/7 21/53/7 24/60/7
f 24/60/7 29/69/7 32/76/7
f 32/76/7 25/61/7 28/68/7
f 28/68/7 17/45/7 20/52/7
f 20/52/7 24/60/7 32/76/7
f 17/45/16 64/147/16 57/129/16
f 21/53/17 58/133/17 59/135/17
f 29/69/18 60/137/18 61/140/18
f 25/61/19 62/143/19 63/145/19
f 58/133/20 21/53/20 20/52/20
f 60/137/21 29/69/21 24/60/21
f 62/143/22 25/61/22 32/76/22
f 64/147/23 17/45/23 28/68/23
f 51/121/24 50/119/24 57/130/24
f 1/2/25 34/81/25 33/78/25
f 5/13/26 36/86/26 35/84/26
f 13/35/27 38/91/27 37/88/27
f 9/23/28 40/96/28 39/94/28
f 7/18/29 35/84/29 34/81/29
f 3/7/30 33/78/30 40/96/30
f 11/29/31 39/94/31 38/91/31
f 15/40/32 37/88/32 36/86/32
f 47/112/2 46/109/2 45/107/2
f 45/107/2 44/105/2 43/102/2
f 43/102/2 42/99/2 41/97/2
f 41/97/2 48/115/2 47/112/2
f 47/112/2 45/107/2 43/102/2
f 9/24/33 48/116/33 41/98/33
f 11/30/4 47/113/4 48/116/4
f 7/19/5 43/103/5 44/106/5
f 13/36/34 46/110/34 47/114/34
f 1/3/1 42/100/1 43/104/1
f 15/41/24 45/108/24 46/111/24
f 3/8/6 41/98/6 42/101/6
f 2/5/34 50/120/34 49/118/34
f 10/26/3 52/122/3 51/121/3
f 14/38/1 54/126/1 53/124/1
f 6/16/33 56/128/33 55/127/33
f 19/51/34 22/56/34 58/134/34
f 23/58/33 30/71/33 60/138/33
f 31/74/1 26/63/1 62/144/1
f 27/66/3 18/47/3 64/148/3
f 4/10/3 51/121/3 64/148/3
f 2/5/34 19/51/34 57/131/34
f 10/26/3 27/66/3 63/146/3
f 8/21/34 49/118/34 58/134/34
f 6/16/33 23/58/33 59/136/33
f 16/44/33 55/127/33 60/138/33
f 12/32/1 53/124/1 62/144/1
f 14/38/1 31/74/1 61/141/1
f 72/172/33 71/168/33 76/182/33
f 66/152/34 65/150/34 74/178/34
f 70/164/1 69/161/1 78/188/1
f 68/158/3 67/155/3 80/194/3
f 23/59/2 75/181/2 76/183/2
f 30/72/34 76/184/34 71/169/34
f 31/75/2 77/186/2 78/189/2
f 26/64/33 78/190/33 69/162/33
f 27/67/2 79/192/2 80/195/2
f 8/22/7 65/151/7 66/153/7
f 14/39/3 70/165/3 77/187/3
f 18/48/1 80/196/1 67/156/1
f 4/11/7 67/157/7 68/159/7
f 2/6/33 66/154/33 73/175/33
f 12/33/7 69/163/7 70/166/7
f 10/27/34 68/160/34 79/193/34
