# Blender 3.3.1
# www.blender.org
o Plane
v -20.000000 0.000000 42.000000
v 20.000000 0.000000 42.000000
v 20.000000 5.857721 42.000000
v -14.910276 0.000000 22.910276
v -14.910276 6.857721 22.910276
v -14.910276 0.000000 3.583129
v -14.910276 6.857721 3.583129
v -3.089724 0.000000 22.910276
v -3.089724 6.857721 22.910276
v -3.089724 0.000000 3.583129
v -3.089724 6.857721 3.583129
v -14.910276 3.021353 15.519105
v -14.910276 3.492649 14.019105
v -14.910276 3.360011 14.519105
v -14.910276 3.189206 15.019105
v -14.910276 3.492649 13.019105
v -14.910276 3.021353 11.519105
v -14.910276 3.189206 12.019105
v -14.910276 3.360011 12.519105
v -14.910276 3.545999 13.519105
v -14.910276 0.000000 15.519105
v -14.910276 0.000000 11.519105
v -3.089724 3.189205 15.019105
v -3.089724 3.021352 15.519105
v -3.089724 3.492648 14.019105
v -3.089724 3.360010 14.519105
v -3.089724 3.545998 13.519105
v -3.089724 3.492648 13.019105
v -3.089724 3.189205 12.019105
v -3.089724 3.021352 11.519105
v -3.089724 3.360010 12.519105
v -3.089724 0.000000 15.519105
v -3.089724 0.000000 11.519105
v -20.000000 5.857721 42.000000
v 14.910276 0.000000 22.910276
v 14.910276 6.857721 22.910276
v 14.910276 0.000000 3.583129
v 14.910276 6.857721 3.583129
v 3.089724 0.000000 22.910276
v 3.089724 6.857721 22.910276
v 3.089724 0.000000 3.583129
v 3.089724 6.857721 3.583129
v 14.910276 3.021353 15.519105
v 14.910276 3.492649 14.019105
v 14.910276 3.360011 14.519105
v 14.910276 3.189206 15.019105
v 14.910276 3.492649 13.019105
v 14.910276 3.021353 11.519105
v 14.910276 3.189206 12.019105
v 14.910276 3.360011 12.519105
v 14.910276 3.545999 13.519105
v 14.910276 0.000000 15.519105
v 14.910276 0.000000 11.519105
v 3.089724 3.189205 15.019105
v 3.089724 3.021352 15.519105
v 3.089724 3.492648 14.019105
v 3.089724 3.360010 14.519105
v 3.089724 3.545998 13.519105
v 3.089724 3.492648 13.019105
v 3.089724 3.189205 12.019105
v 3.089724 3.021352 11.519105
v 3.089724 3.360010 12.519105
v 3.089724 0.000000 15.519105
v 3.089724 0.000000 11.519105
v 20.000000 0.000000 -42.000000
v -20.000000 5.857721 -42.000000
v -14.910276 0.000000 -22.910276
v -14.910276 6.857721 -22.910276
v -14.910276 0.000000 -3.583129
v -14.910276 6.857721 -3.583129
v -3.089724 0.000000 -22.910276
v -3.089724 6.857721 -22.910276
v -3.089724 0.000000 -3.583129
v -3.089724 6.857721 -3.583129
v -14.910276 3.021353 -15.519105
v -14.910276 3.492649 -14.019105
v -14.910276 3.360011 -14.519105
v -14.910276 3.189206 -15.019105
v -14.910276 3.492649 -13.019105
v -14.910276 3.021353 -11.519105
v -14.910276 3.189206 -12.019105
v -14.910276 3.360011 -12.519105
v -14.910276 3.545999 -13.519105
v -14.910276 0.000000 -15.519105
v -14.910276 0.000000 -11.519105
v -3.089724 3.189205 -15.019105
v -3.089724 3.021352 -15.519105
v -3.089724 3.492648 -14.019105
v -3.089724 3.360010 -14.519105
v -3.089724 3.545998 -13.519105
v -3.089724 3.492648 -13.019105
v -3.089724 3.189205 -12.019105
v -3.089724 3.021352 -11.519105
v -3.089724 3.360010 -12.519105
v -3.089724 0.000000 -15.519105
v -3.089724 0.000000 -11.519105
v -20.000000 0.000000 -42.000000
v 20.000000 5.857721 -42.000000
v 14.910276 0.000000 -22.910276
v 14.910276 6.857721 -22.910276
v 14.910276 0.000000 -3.583129
v 14.910276 6.857721 -3.583129
v 3.089724 0.000000 -22.910276
v 3.089724 6.857721 -22.910276
v 3.089724 0.000000 -3.583129
v 3.089724 6.857721 -3.583129
v 14.910276 3.021353 -15.519105
v 14.910276 3.492649 -14.019105
v 14.910276 3.360011 -14.519105
v 14.910276 3.189206 -15.019105
v 14.910276 3.492649 -13.019105
v 14.910276 3.021353 -11.519105
v 14.910276 3.189206 -12.019105
v 14.910276 3.360011 -12.519105
v 14.910276 3.545999 -13.519105
v 14.910276 0.000000 -15.519105
v 14.910276 0.000000 -11.519105
v 3.089724 3.189205 -15.019105
v 3.089724 3.021352 -15.519105
v 3.089724 3.492648 -14.019105
v 3.089724 3.360010 -14.519105
v 3.089724 3.545998 -13.519105
v 3.089724 3.492648 -13.019105
v 3.089724 3.189205 -12.019105
v 3.089724 3.021352 -11.519105
v 3.089724 3.360010 -12.519105
v 3.089724 0.000000 -15.519105
v 3.089724 0.000000 -11.519105
vn -0.0000 -0.0000 -1.0000
vn -1.0000 -0.0000 -0.0000
vn 1.0000 -0.0000 -0.0000
vn -0.0000 -0.0000 1.0000
vn -0.0000 -1.0000 -0.0000
vn -0.0000 1.0000 -0.0000
vn -0.0000 -0.9944 -0.1061
vn -0.0000 -0.9463 0.3233
vn -0.0000 -0.9480 0.3183
vn -0.0000 -0.9480 -0.3183
vn -0.0000 -0.9463 -0.3233
vn -0.0000 -0.9944 0.1061
vn -0.0000 -0.9666 0.2564
vn -0.0000 -0.9666 -0.2564
vn -1.0000 -0.0000 0.0003
vn -1.0000 -0.0000 -0.0003
vn 1.0000 -0.0000 -0.0003
vn 1.0000 -0.0000 0.0003
vt 0.595332 0.290707
vt 0.290707 0.592342
vt 0.493791 0.016495
vt 0.595332 0.016495
vt 0.392249 0.592342
vt 0.016495 0.592342
vt 0.323695 0.592342
vt 0.526778 0.016495
vt 0.091903 0.757823
vt 0.817751 0.296000
vt 0.850740 0.130516
vt 0.016494 0.757823
vt 0.742342 0.296000
vt 0.709354 0.148988
vt 0.817751 0.263010
vt 0.091903 0.625330
vt 0.574327 0.796379
vt 0.016494 0.625330
vt 0.742342 0.263010
vt 0.709354 0.016494
vt 0.817751 0.377033
vt 0.850740 0.211550
vt 0.200299 0.625330
vt 0.124890 0.625330
vt 0.742342 0.377033
vt 0.628320 0.148988
vt 0.817751 0.181976
vt 0.200299 0.757824
vt 0.574327 0.877413
vt 0.628320 0.016494
vt 0.742342 0.181976
vt 0.124890 0.757824
vt 0.042793 0.707155
vt 0.450083 0.625330
vt 0.759527 0.843906
vt 0.039563 0.696872
vt 0.460365 0.625330
vt 0.040472 0.700299
vt 0.456938 0.625330
vt 0.041643 0.703727
vt 0.453510 0.625330
vt 0.039563 0.690016
vt 0.467220 0.625330
vt 0.477503 0.625330
vt 0.042793 0.679733
vt 0.628320 0.843906
vt 0.041643 0.683161
vt 0.474075 0.625330
vt 0.040472 0.686589
vt 0.470648 0.625330
vt 0.039197 0.693444
vt 0.463793 0.625330
vt 0.710418 0.843906
vt 0.091903 0.707155
vt 0.901409 0.130516
vt 0.519923 0.796379
vt 0.091903 0.679733
vt 0.677429 0.843906
vt 0.150040 0.679426
vt 0.453510 0.706364
vt 0.151191 0.675999
vt 0.450083 0.706364
vt 0.759527 0.924940
vt 0.147960 0.686281
vt 0.460365 0.706364
vt 0.148869 0.682854
vt 0.456938 0.706364
vt 0.147593 0.689709
vt 0.463793 0.706364
vt 0.147960 0.693136
vt 0.467220 0.706364
vt 0.150040 0.699991
vt 0.474075 0.706364
vt 0.151191 0.703419
vt 0.628320 0.924940
vt 0.477503 0.706364
vt 0.148869 0.696564
vt 0.470648 0.706364
vt 0.200299 0.675999
vt 0.901409 0.211550
vt 0.710418 0.924940
vt 0.677429 0.924940
vt 0.200299 0.703419
vt 0.519923 0.877413
vt 0.526778 0.290707
vt 0.425237 0.016495
vt 0.308697 0.625330
vt 0.817751 0.605076
vt 0.850740 0.325572
vt 0.233288 0.625330
vt 0.742342 0.605076
vt 0.628321 0.314470
vt 0.817751 0.410021
vt 0.308697 0.757824
vt 0.899518 0.873479
vt 0.233288 0.757824
vt 0.742342 0.410021
vt 0.628321 0.181976
vt 0.817751 0.524043
vt 0.850740 0.244538
vt 0.417093 0.757823
vt 0.341684 0.757823
vt 0.742342 0.524043
vt 0.709354 0.314470
vt 0.817751 0.491055
vt 0.417093 0.625330
vt 0.899518 0.792445
vt 0.709354 0.181976
vt 0.742342 0.491055
vt 0.341684 0.625330
vt 0.259587 0.675999
vt 0.450083 0.820386
vt 0.932506 0.792446
vt 0.256357 0.686281
vt 0.460365 0.820386
vt 0.257266 0.682854
vt 0.456938 0.820386
vt 0.258437 0.679426
vt 0.453510 0.820386
vt 0.256357 0.693136
vt 0.467220 0.820386
vt 0.477503 0.820386
vt 0.259587 0.703419
vt 0.981616 0.678423
vt 0.258437 0.699991
vt 0.474075 0.820386
vt 0.257266 0.696564
vt 0.470648 0.820386
vt 0.255991 0.689709
vt 0.463793 0.820386
vt 0.981615 0.792446
vt 0.308697 0.675999
vt 0.901409 0.325572
vt 0.845114 0.873479
vt 0.308697 0.703419
vt 0.932507 0.678423
vt 0.366834 0.703727
vt 0.453510 0.739352
vt 0.367985 0.707155
vt 0.450083 0.739352
vt 0.932506 0.873480
vt 0.364754 0.696872
vt 0.460365 0.739352
vt 0.365663 0.700299
vt 0.456938 0.739352
vt 0.364388 0.693444
vt 0.463793 0.739352
vt 0.364754 0.690016
vt 0.467220 0.739352
vt 0.366834 0.683161
vt 0.474075 0.739352
vt 0.367985 0.679733
vt 0.981616 0.759457
vt 0.477503 0.739352
vt 0.365663 0.686589
vt 0.470648 0.739352
vt 0.417093 0.707155
vt 0.901409 0.244538
vt 0.981615 0.873480
vt 0.932507 0.759457
vt 0.417093 0.679733
vt 0.845114 0.792445
vt 0.595332 0.597908
vt 0.392249 0.016495
vt 0.016495 0.016495
vt 0.526778 0.323696
vt 0.425237 0.592342
vt 0.595332 0.630898
vt 0.200299 0.871846
vt 0.901409 0.358561
vt 0.519923 0.630898
vt 0.124890 0.871846
vt 0.709354 0.347460
vt 0.091903 0.790812
vt 0.595332 0.763391
vt 0.850739 0.016495
vt 0.519923 0.763391
vt 0.016494 0.790812
vt 0.709354 0.479954
vt 0.200299 0.790812
vt 0.901409 0.439594
vt 0.703729 0.810917
vt 0.628320 0.810917
vt 0.124890 0.790812
vt 0.628320 0.347460
vt 0.091903 0.871845
vt 0.703729 0.678423
vt 0.850739 0.097528
vt 0.628320 0.479954
vt 0.016494 0.871845
vt 0.628320 0.678423
vt 0.546223 0.681566
vt 0.477504 0.853374
vt 0.934397 0.244539
vt 0.542993 0.691849
vt 0.467220 0.853374
vt 0.543901 0.688421
vt 0.470648 0.853374
vt 0.545073 0.684994
vt 0.474076 0.853374
vt 0.542993 0.698704
vt 0.460365 0.853374
vt 0.450082 0.853374
vt 0.546223 0.708986
vt 0.983506 0.130516
vt 0.545073 0.705559
vt 0.453510 0.853374
vt 0.543901 0.702131
vt 0.456938 0.853374
vt 0.542626 0.695276
vt 0.463793 0.853374
vt 0.983506 0.244539
vt 0.595332 0.681566
vt 0.850739 0.358561
vt 0.905143 0.016495
vt 0.595332 0.708986
vt 0.934397 0.130516
vt 0.653469 0.756820
vt 0.474076 0.934408
vt 0.654620 0.760248
vt 0.477504 0.934408
vt 0.934397 0.325573
vt 0.651389 0.749965
vt 0.467220 0.934408
vt 0.652298 0.753393
vt 0.470648 0.934408
vt 0.651023 0.746538
vt 0.463793 0.934408
vt 0.651389 0.743110
vt 0.460365 0.934408
vt 0.653469 0.736255
vt 0.453510 0.934408
vt 0.654620 0.732827
vt 0.983506 0.211550
vt 0.450082 0.934408
vt 0.652298 0.739682
vt 0.456938 0.934408
vt 0.703729 0.760248
vt 0.850739 0.439594
vt 0.983506 0.325573
vt 0.934397 0.211550
vt 0.703729 0.732827
vt 0.905143 0.097528
vt 0.290707 0.016495
vt 0.493791 0.592342
vt 0.595332 0.323696
vt 0.323695 0.016495
vt 0.526778 0.597908
vt 0.812126 0.810917
vt 0.417093 0.790812
vt 0.901409 0.553616
vt 0.736717 0.810917
vt 0.341684 0.790812
vt 0.628321 0.512941
vt 0.308697 0.871846
vt 0.812126 0.678423
vt 0.845114 0.759457
vt 0.736717 0.678423
vt 0.233288 0.871846
vt 0.628321 0.645435
vt 0.417093 0.871845
vt 0.901409 0.472583
vt 0.817751 0.016495
vt 0.742342 0.016495
vt 0.341684 0.871845
vt 0.709354 0.512941
vt 0.308697 0.790812
vt 0.817751 0.148989
vt 0.845114 0.678423
vt 0.709354 0.645435
vt 0.233288 0.790812
vt 0.742342 0.148989
vt 0.763017 0.760248
vt 0.965553 0.097528
vt 0.983506 0.472584
vt 0.759787 0.749965
vt 0.955270 0.097528
vt 0.760695 0.753393
vt 0.958697 0.097528
vt 0.761867 0.756820
vt 0.962126 0.097528
vt 0.759787 0.743110
vt 0.948415 0.097528
vt 0.938131 0.097528
vt 0.763017 0.732827
vt 0.934397 0.358561
vt 0.761867 0.736255
vt 0.941560 0.097528
vt 0.760695 0.739682
vt 0.944987 0.097528
vt 0.759420 0.746538
vt 0.951842 0.097528
vt 0.934397 0.472584
vt 0.812126 0.760248
vt 0.850739 0.553616
vt 0.899518 0.759457
vt 0.812126 0.732827
vt 0.983506 0.358561
vt 0.767491 0.070591
vt 0.962126 0.016494
vt 0.768642 0.067163
vt 0.965553 0.016494
vt 0.983506 0.553617
vt 0.765411 0.077446
vt 0.955270 0.016494
vt 0.766320 0.074018
vt 0.958697 0.016494
vt 0.765045 0.080873
vt 0.951842 0.016494
vt 0.765411 0.084301
vt 0.948415 0.016494
vt 0.767491 0.091156
vt 0.941560 0.016494
vt 0.768642 0.094584
vt 0.934397 0.439594
vt 0.938131 0.016494
vt 0.766320 0.087729
vt 0.944987 0.016494
vt 0.817751 0.067163
vt 0.850739 0.472583
vt 0.934397 0.553617
vt 0.983506 0.439594
vt 0.817751 0.094584
vt 0.899518 0.678423
s 0
f 1/1/1 3/8/1 2/4/1
f 98/247/2 2/5/2 3/7/2
f 7/18/2 20/51/2 13/36/2
f 7/19/1 10/27/1 6/15/1
f 9/24/3 27/68/3 28/70/3
f 9/25/4 4/10/4 8/21/4
f 4/11/5 32/80/5 8/22/5
f 6/17/5 33/84/5 22/56/5
f 7/20/6 9/26/6 11/30/6
f 27/69/7 13/37/7 20/52/7
f 29/73/8 19/50/8 18/48/8
f 30/75/4 22/58/4 33/82/4
f 30/76/9 18/48/9 17/44/9
f 23/60/10 12/34/10 15/41/10
f 26/67/11 15/41/11 14/39/11
f 28/71/12 20/52/12 16/43/12
f 12/35/1 32/81/1 21/53/1
f 31/78/13 16/43/13 19/50/13
f 25/65/14 14/39/14 13/37/14
f 44/114/3 51/129/3 38/96/3
f 41/105/1 38/97/1 37/93/1
f 59/148/2 58/146/2 40/102/2
f 35/88/4 40/103/4 39/99/4
f 63/158/5 35/89/5 39/100/5
f 64/162/5 37/95/5 53/134/5
f 40/104/6 38/98/6 42/108/6
f 51/130/7 56/143/7 58/147/7
f 50/128/8 60/151/8 49/126/8
f 53/136/4 61/153/4 64/160/4
f 49/126/9 61/154/9 48/122/9
f 43/112/10 54/138/10 46/119/10
f 46/119/11 57/145/11 45/117/11
f 51/130/12 59/149/12 47/121/12
f 63/159/1 43/113/1 52/131/1
f 47/121/13 62/156/13 50/128/13
f 45/117/14 56/143/14 44/115/14
f 98/248/4 97/246/4 65/163/4
f 76/195/2 83/210/2 70/177/2
f 73/186/4 70/178/4 69/174/4
f 91/229/3 90/227/3 72/183/3
f 67/169/1 72/184/1 71/180/1
f 95/239/5 67/170/5 71/181/5
f 96/243/5 69/176/5 85/215/5
f 72/185/6 70/179/6 74/189/6
f 83/211/12 88/224/12 90/228/12
f 82/209/11 92/232/11 81/207/11
f 85/217/1 93/234/1 96/241/1
f 81/207/10 93/235/10 80/203/10
f 75/193/9 86/219/9 78/200/9
f 78/200/8 89/226/8 77/198/8
f 83/211/7 91/230/7 79/202/7
f 95/240/4 75/194/4 84/212/4
f 79/202/14 94/237/14 82/209/14
f 77/198/13 88/224/13 76/196/13
f 102/258/3 115/291/3 108/276/3
f 102/259/4 105/267/4 101/255/4
f 104/264/2 122/308/2 123/310/2
f 104/265/1 99/250/1 103/261/1
f 99/251/5 127/320/5 103/262/5
f 101/257/5 128/324/5 117/296/5
f 102/260/6 104/266/6 106/270/6
f 122/309/12 108/277/12 115/292/12
f 124/313/11 114/290/11 113/288/11
f 125/315/1 117/298/1 128/322/1
f 125/316/10 113/288/10 112/284/10
f 118/300/9 107/274/9 110/281/9
f 121/307/8 110/281/8 109/279/8
f 123/311/7 115/292/7 111/283/7
f 107/275/4 127/321/4 116/293/4
f 126/318/14 111/283/14 114/290/14
f 120/305/13 109/279/13 108/277/13
f 1/2/6 65/165/6 97/244/6
f 66/167/3 1/3/3 97/245/3
f 1/1/1 34/85/1 3/8/1
f 98/247/2 65/164/2 2/5/2
f 21/54/2 4/9/2 5/12/2
f 7/18/2 6/16/2 22/57/2
f 17/45/15 18/47/15 19/49/15
f 7/18/2 22/57/2 17/45/2
f 12/33/2 21/54/2 5/12/2
f 14/38/16 15/40/16 12/33/16
f 14/38/2 12/33/2 5/12/2
f 7/18/2 17/45/2 19/49/2
f 7/18/2 19/49/2 16/42/2
f 14/38/2 5/12/2 7/18/2
f 13/36/2 14/38/2 7/18/2
f 7/18/2 16/42/2 20/51/2
f 7/19/1 11/31/1 10/27/1
f 33/83/3 10/28/3 11/32/3
f 9/24/3 8/23/3 32/79/3
f 24/61/3 23/59/3 26/66/3
f 9/24/3 32/79/3 24/61/3
f 30/74/3 33/83/3 11/32/3
f 31/77/3 29/72/3 30/74/3
f 31/77/3 30/74/3 11/32/3
f 9/24/3 24/61/3 26/66/3
f 9/24/3 26/66/3 25/64/3
f 31/77/3 11/32/3 9/24/3
f 28/70/3 31/77/3 9/24/3
f 9/24/3 25/64/3 27/68/3
f 9/25/4 5/13/4 4/10/4
f 4/11/5 21/55/5 32/80/5
f 6/17/5 10/29/5 33/84/5
f 7/20/6 5/14/6 9/26/6
f 27/69/7 25/65/7 13/37/7
f 29/73/8 31/78/8 19/50/8
f 30/75/4 17/46/4 22/58/4
f 30/76/9 29/73/9 18/48/9
f 23/60/10 24/62/10 12/34/10
f 26/67/11 23/60/11 15/41/11
f 28/71/12 27/69/12 20/52/12
f 12/35/1 24/63/1 32/81/1
f 31/78/13 28/71/13 16/43/13
f 25/65/14 26/67/14 14/39/14
f 36/90/3 35/87/3 52/132/3
f 43/111/17 46/118/17 45/116/17
f 36/90/3 52/132/3 43/111/3
f 53/135/3 37/94/3 38/96/3
f 50/127/18 49/125/18 48/123/18
f 48/123/3 53/135/3 38/96/3
f 36/90/3 43/111/3 45/116/3
f 36/90/3 45/116/3 44/114/3
f 50/127/3 48/123/3 38/96/3
f 47/120/3 50/127/3 38/96/3
f 38/96/3 36/90/3 44/114/3
f 51/129/3 47/120/3 38/96/3
f 41/105/1 42/109/1 38/97/1
f 42/110/2 41/106/2 64/161/2
f 61/152/2 60/150/2 62/155/2
f 42/110/2 64/161/2 61/152/2
f 63/157/2 39/101/2 40/102/2
f 57/144/2 54/137/2 55/139/2
f 55/139/2 63/157/2 40/102/2
f 42/110/2 61/152/2 62/155/2
f 42/110/2 62/155/2 59/148/2
f 57/144/2 55/139/2 40/102/2
f 56/142/2 57/144/2 40/102/2
f 40/102/2 42/110/2 59/148/2
f 58/146/2 56/142/2 40/102/2
f 35/88/4 36/91/4 40/103/4
f 63/158/5 52/133/5 35/89/5
f 64/162/5 41/107/5 37/95/5
f 40/104/6 36/92/6 38/98/6
f 51/130/7 44/115/7 56/143/7
f 50/128/8 62/156/8 60/151/8
f 53/136/4 48/124/4 61/153/4
f 49/126/9 60/151/9 61/154/9
f 43/112/10 55/140/10 54/138/10
f 46/119/11 54/138/11 57/145/11
f 51/130/12 58/147/12 59/149/12
f 63/159/1 55/141/1 43/113/1
f 47/121/13 59/149/13 62/156/13
f 45/117/14 57/145/14 56/143/14
f 98/248/4 66/166/4 97/246/4
f 68/171/2 67/168/2 84/213/2
f 75/192/15 78/199/15 77/197/15
f 68/171/2 84/213/2 75/192/2
f 85/216/2 69/175/2 70/177/2
f 82/208/16 81/206/16 80/204/16
f 80/204/2 85/216/2 70/177/2
f 68/171/2 75/192/2 77/197/2
f 68/171/2 77/197/2 76/195/2
f 82/208/2 80/204/2 70/177/2
f 79/201/2 82/208/2 70/177/2
f 70/177/2 68/171/2 76/195/2
f 83/210/2 79/201/2 70/177/2
f 73/186/4 74/190/4 70/178/4
f 74/191/3 73/187/3 96/242/3
f 93/233/3 92/231/3 94/236/3
f 74/191/3 96/242/3 93/233/3
f 95/238/3 71/182/3 72/183/3
f 89/225/3 86/218/3 87/220/3
f 87/220/3 95/238/3 72/183/3
f 74/191/3 93/233/3 94/236/3
f 74/191/3 94/236/3 91/229/3
f 89/225/3 87/220/3 72/183/3
f 88/223/3 89/225/3 72/183/3
f 72/183/3 74/191/3 91/229/3
f 90/227/3 88/223/3 72/183/3
f 67/169/1 68/172/1 72/184/1
f 95/239/5 84/214/5 67/170/5
f 96/243/5 73/188/5 69/176/5
f 72/185/6 68/173/6 70/179/6
f 83/211/12 76/196/12 88/224/12
f 82/209/11 94/237/11 92/232/11
f 85/217/1 80/205/1 93/234/1
f 81/207/10 92/232/10 93/235/10
f 75/193/9 87/221/9 86/219/9
f 78/200/8 86/219/8 89/226/8
f 83/211/7 90/228/7 91/230/7
f 95/240/4 87/222/4 75/194/4
f 79/202/14 91/230/14 94/237/14
f 77/198/13 89/226/13 88/224/13
f 116/294/3 99/249/3 100/252/3
f 102/258/3 101/256/3 117/297/3
f 112/285/17 113/287/17 114/289/17
f 102/258/3 117/297/3 112/285/3
f 107/273/3 116/294/3 100/252/3
f 109/278/18 110/280/18 107/273/18
f 109/278/3 107/273/3 100/252/3
f 102/258/3 112/285/3 114/289/3
f 102/258/3 114/289/3 111/282/3
f 109/278/3 100/252/3 102/258/3
f 108/276/3 109/278/3 102/258/3
f 102/258/3 111/282/3 115/291/3
f 102/259/4 106/271/4 105/267/4
f 128/323/2 105/268/2 106/272/2
f 104/264/2 103/263/2 127/319/2
f 119/301/2 118/299/2 121/306/2
f 104/264/2 127/319/2 119/301/2
f 125/314/2 128/323/2 106/272/2
f 126/317/2 124/312/2 125/314/2
f 126/317/2 125/314/2 106/272/2
f 104/264/2 119/301/2 121/306/2
f 104/264/2 121/306/2 120/304/2
f 126/317/2 106/272/2 104/264/2
f 123/310/2 126/317/2 104/264/2
f 104/264/2 120/304/2 122/308/2
f 104/265/1 100/253/1 99/250/1
f 99/251/5 116/295/5 127/320/5
f 101/257/5 105/269/5 128/324/5
f 102/260/6 100/254/6 104/266/6
f 122/309/12 120/305/12 108/277/12
f 124/313/11 126/318/11 114/290/11
f 125/315/1 112/286/1 117/298/1
f 125/316/10 124/313/10 113/288/10
f 118/300/9 119/302/9 107/274/9
f 121/307/8 118/300/8 110/281/8
f 123/311/7 122/309/7 115/292/7
f 107/275/4 119/303/4 127/321/4
f 126/318/14 123/311/14 111/283/14
f 120/305/13 121/307/13 109/279/13
f 1/2/6 2/6/6 65/165/6
f 66/167/3 34/86/3 1/3/3
