# Blender 3.3.3
# www.blender.org
o Cube
v -1.000000 -1.000000 1.000000
v -1.000000 1.000000 1.000000
v -1.000000 -1.000000 -1.000000
v -1.000000 1.000000 -1.000000
v 1.000000 -1.000000 1.000000
v 1.000000 1.000000 1.000000
v 1.000000 -1.000000 -1.000000
v 1.000000 1.000000 -1.000000
v -0.900000 1.000000 0.900000
v -0.900000 1.000000 -0.900000
v 0.900000 1.000000 -0.900000
v 0.900000 1.000000 0.900000
v -0.900000 3.000000 0.900000
v -0.900000 3.000000 -0.900000
v 0.900000 3.000000 -0.900000
v 0.900000 3.000000 0.900000
v -0.810000 3.000000 0.810000
v -0.810000 3.000000 -0.810000
v 0.810000 3.000000 -0.810000
v 0.810000 3.000000 0.810000
v -0.810000 4.000000 0.810000
v -0.810000 4.000000 -0.810000
v 0.810000 4.000000 -0.810000
v 0.810000 4.000000 0.810000
v -0.729000 4.000000 0.729000
v -0.729000 4.000000 -0.729000
v 0.729000 4.000000 -0.729000
v 0.729000 4.000000 0.729000
v -0.280811 4.500000 0.280811
v -0.280811 4.500000 -0.280811
v 0.280811 4.500000 -0.280811
v 0.280811 4.500000 0.280811
v -0.729000 4.500000 0.729000
v -0.729000 4.500000 -0.729000
v 0.729000 4.500000 -0.729000
v 0.729000 4.500000 0.729000
v -0.104194 5.642992 0.104194
v -0.104194 5.642992 -0.104194
v 0.104194 5.642992 -0.104194
v 0.104194 5.642992 0.104194
v -0.280811 5.642992 0.280811
v -0.280811 5.642992 -0.280811
v 0.280811 5.642992 -0.280811
v 0.280811 5.642992 0.280811
v -0.104194 6.614240 0.104194
v -0.104194 6.614240 -0.104194
v 0.104194 6.614240 -0.104194
v 0.104194 6.614240 0.104194
v -1.000000 -2.000000 -1.000000
v -1.000000 -2.000000 1.000000
v 1.000000 -2.000000 -1.000000
v 1.000000 -2.000000 1.000000
v -0.900000 -2.000000 -0.900000
v -0.900000 -2.000000 0.900000
v 0.900000 -2.000000 -0.900000
v 0.900000 -2.000000 0.900000
v -0.900000 -2.211950 -0.900000
v -0.900000 -2.211950 0.900000
v 0.900000 -2.211950 -0.900000
v 0.900000 -2.211950 0.900000
v -0.990000 -2.211950 -0.990000
v -0.990000 -2.211950 0.990000
v 0.990000 -2.211950 -0.990000
v 0.990000 -2.211950 0.990000
v -0.990000 -2.860442 -0.990000
v -0.990000 -2.860442 0.990000
v 0.990000 -2.860442 -0.990000
v 0.990000 -2.860442 0.990000
v -0.990000 -3.263742 -0.990000
v -0.990000 -3.263742 0.990000
v 0.990000 -3.263742 -0.990000
v 0.990000 -3.263742 0.990000
v -1.086045 -3.263742 -1.086045
v -1.086045 -3.263742 1.086045
v 1.086045 -3.263742 -1.086045
v 1.086045 -3.263742 1.086045
v -1.012089 -4.176443 -1.012089
v -1.012089 -4.176443 1.012089
v 1.012089 -4.176443 -1.012089
v 1.012089 -4.176443 1.012089
v -1.086045 -4.176443 -1.086045
v -1.086045 -4.176443 1.086045
v 1.086045 -4.176443 -1.086045
v 1.086045 -4.176443 1.086045
v -0.861087 -2.467654 -0.861087
v -0.861087 -2.467654 0.861087
v 0.861087 -2.467654 -0.861087
v 0.861087 -2.467654 0.861087
v -0.284672 -2.467654 -0.284672
v -0.284672 -2.467654 0.284672
v 0.284672 -2.467654 -0.284672
v 0.284672 -2.467654 0.284672
v -0.284672 -3.865827 -0.284672
v -0.284672 -3.865827 0.284672
v 0.284672 -3.865827 -0.284672
v 0.284672 -3.865827 0.284672
v -0.446222 -3.865827 -0.446222
v -0.446222 -3.865827 0.446222
v 0.446222 -3.865827 -0.446222
v 0.446222 -3.865827 0.446222
v -0.395624 -5.284578 -0.395624
v -0.395624 -5.284578 0.395624
v 0.395624 -5.284578 -0.395624
v 0.395624 -5.284578 0.395624
v -0.446222 -5.284578 -0.446222
v -0.446222 -5.284578 0.446222
v 0.446222 -5.284578 -0.446222
v 0.446222 -5.284578 0.446222
v -0.395624 -4.212959 -0.395624
v -0.395624 -4.212959 0.395624
v 0.395624 -4.212959 -0.395624
v 0.395624 -4.212959 0.395624
vn -1.0000 -0.0000 -0.0000
vn -0.0000 -0.0000 -1.0000
vn 1.0000 -0.0000 -0.0000
vn -0.0000 -0.0000 1.0000
vn -0.0000 1.0000 -0.0000
vn -0.0000 -1.0000 -0.0000
vn -0.9961 -0.0880 -0.0000
vn 0.9961 -0.0880 -0.0000
vn -0.0000 -0.0880 -0.9961
vn -0.0000 -0.0880 0.9961
vt 0.270494 0.270490
vt 0.021645 0.270490
vt 0.270494 0.373268
vt 0.021645 0.373268
vt 0.124425 0.519338
vt 0.124425 0.073034
vt 0.167714 0.270490
vt 0.167714 0.373268
vt 0.124425 0.175812
vt 0.124425 0.416558
vt 0.124425 0.270490
vt 0.167714 0.073034
vt 0.167714 0.175812
vt 0.124425 0.373268
vt 0.021645 0.519338
vt 0.270494 0.073034
vt 0.021645 0.073034
vt 0.021645 0.175812
vt 0.270494 0.175812
vt 0.021645 0.416558
vt 0.468697 0.021645
vt 0.119286 0.514199
vt 0.561198 0.167712
vt 0.468697 0.167712
vt 0.119286 0.421697
vt 0.552355 0.477538
vt 0.459853 0.477538
vt 0.552355 0.331471
vt 0.026784 0.421697
vt 0.459853 0.331471
vt 0.026784 0.514199
vt 0.561198 0.021645
vt 0.561198 0.270490
vt 0.468697 0.124423
vt 0.688146 0.571285
vt 0.468697 0.270490
vt 0.552355 0.580316
vt 0.688146 0.478783
vt 0.552355 0.434249
vt 0.459853 0.580316
vt 0.595644 0.478783
vt 0.459853 0.434249
vt 0.595644 0.571285
vt 0.561198 0.124423
vt 0.647033 0.759616
vt 0.683521 0.566659
vt 0.787669 0.104896
vt 0.787669 0.021645
vt 0.683521 0.483408
vt 0.744373 0.842867
vt 0.744373 0.759616
vt 0.782825 0.562034
vt 0.600269 0.483408
vt 0.782825 0.478783
vt 0.600269 0.566659
vt 0.647033 0.842867
vt 0.736279 0.104896
vt 0.595644 0.759616
vt 0.687739 0.236688
vt 0.736279 0.021645
vt 0.692984 0.842867
vt 0.687739 0.153437
vt 0.731435 0.562034
vt 0.692984 0.759616
vt 0.604488 0.153437
vt 0.731435 0.478783
vt 0.604488 0.236688
vt 0.595644 0.842867
vt 0.919464 0.153437
vt 0.683577 0.232526
vt 0.265957 0.902054
vt 0.265957 0.827127
vt 0.683577 0.157599
vt 0.924357 0.553709
vt 0.924357 0.478783
vt 0.929201 0.096571
vt 0.608650 0.157599
vt 0.929201 0.021645
vt 0.608650 0.232526
vt 0.919464 0.228363
vt 0.906137 0.323869
vt 0.342645 0.886091
vt 0.219608 0.760805
vt 0.313784 0.886091
vt 0.219608 0.731944
vt 0.414797 0.886091
vt 0.385935 0.886091
vt 0.190747 0.731944
vt 0.624506 0.886157
vt 0.595644 0.886157
vt 0.190747 0.760805
vt 0.934999 0.323869
vt 0.240262 0.902054
vt 0.893769 0.153437
vt 0.242641 0.783838
vt 0.240262 0.827127
vt 0.898662 0.553709
vt 0.242641 0.708911
vt 0.903506 0.096571
vt 0.898662 0.478783
vt 0.167714 0.708911
vt 0.903506 0.021645
vt 0.893769 0.228363
vt 0.167714 0.783838
vt 0.402936 0.769894
vt 0.978355 0.478783
vt 0.187500 0.962053
vt 0.967646 0.478783
vt 0.187500 0.951344
vt 0.974137 0.905278
vt 0.963428 0.905278
vt 0.176790 0.951344
vt 0.975178 0.614574
vt 0.964468 0.614574
vt 0.176790 0.962053
vt 0.413645 0.769894
vt 0.342645 0.944829
vt 0.906137 0.382607
vt 0.196576 0.971129
vt 0.313784 0.944829
vt 0.414797 0.944829
vt 0.196576 0.942268
vt 0.385935 0.944829
vt 0.624506 0.944894
vt 0.167714 0.942268
vt 0.934999 0.382607
vt 0.595644 0.944894
vt 0.167714 0.971129
vt 0.978355 0.528694
vt 0.831930 0.279286
vt 0.402936 0.819805
vt 0.967646 0.528694
vt 0.831930 0.268577
vt 0.974137 0.955190
vt 0.821221 0.268577
vt 0.963428 0.955190
vt 0.975178 0.664485
vt 0.821221 0.279286
vt 0.413645 0.819805
vt 0.964468 0.664485
vt 0.124425 0.021645
vt 0.167714 0.219101
vt 0.313784 0.331471
vt 0.270494 0.219101
vt 0.021645 0.219101
vt 0.313784 0.434251
vt 0.021645 0.021645
vt 0.270494 0.021645
vt 0.416563 0.331471
vt 0.416563 0.434251
vt 0.167714 0.021645
vt 0.124425 0.219101
vt 0.963428 0.861989
vt 0.318923 0.336610
vt 0.962754 0.153437
vt 0.962754 0.245939
vt 0.111837 0.709939
vt 0.318923 0.429112
vt 0.111837 0.938232
vt 0.411424 0.336610
vt 0.963428 0.769487
vt 0.111837 0.802441
vt 0.411424 0.429112
vt 0.111837 0.845731
vt 0.974320 0.861989
vt 0.973645 0.153437
vt 0.264841 0.421183
vt 0.122729 0.709939
vt 0.973645 0.245939
vt 0.264841 0.513685
vt 0.974320 0.769487
vt 0.122729 0.938232
vt 0.172339 0.421183
vt 0.122729 0.802441
vt 0.172339 0.513685
vt 0.122729 0.845731
vt 0.513903 0.623606
vt 0.649695 0.716326
vt 0.269466 0.416558
vt 0.649695 0.614574
vt 0.269466 0.518310
vt 0.747035 0.716326
vt 0.367834 0.624852
vt 0.167714 0.416558
vt 0.513903 0.725358
vt 0.747035 0.614574
vt 0.167714 0.518310
vt 0.367834 0.726604
vt 0.480578 0.623606
vt 0.616369 0.716326
vt 0.616369 0.614574
vt 0.713709 0.716326
vt 0.334509 0.624852
vt 0.480578 0.725358
vt 0.713709 0.614574
vt 0.334509 0.726604
vt 0.459853 0.623606
vt 0.595644 0.716326
vt 0.420471 0.181494
vt 0.692984 0.716326
vt 0.595644 0.614574
vt 0.420471 0.283246
vt 0.459853 0.725358
vt 0.313784 0.624852
vt 0.318719 0.181494
vt 0.692984 0.614574
vt 0.313784 0.726604
vt 0.318719 0.283246
vt 0.731029 0.265060
vt 0.425407 0.176558
vt 0.726792 0.323870
vt 0.726792 0.435493
vt 0.021645 0.709939
vt 0.425407 0.288181
vt 0.790324 0.726198
vt 0.313784 0.176558
vt 0.731029 0.153437
vt 0.021645 0.821563
vt 0.313784 0.288181
vt 0.790324 0.614574
vt 0.021645 0.666650
vt 0.317584 0.025445
vt 0.167714 0.561600
vt 0.167714 0.665622
vt 0.317584 0.129468
vt 0.595644 0.331471
vt 0.313783 0.581562
vt 0.421606 0.025445
vt 0.021645 0.562627
vt 0.595644 0.435493
vt 0.313783 0.477540
vt 0.421606 0.129468
vt 0.777932 0.265060
vt 0.773695 0.323870
vt 0.313784 0.021645
vt 0.068547 0.709939
vt 0.773695 0.435493
vt 0.313784 0.133268
vt 0.777932 0.153437
vt 0.837227 0.726198
vt 0.425407 0.021645
vt 0.068547 0.821563
vt 0.837227 0.614574
vt 0.425407 0.133268
vt 0.604488 0.021645
vt 0.255573 0.569360
vt 0.109503 0.658890
vt 0.255573 0.657862
vt 0.683503 0.339231
vt 0.604488 0.110147
vt 0.401642 0.573802
vt 0.109503 0.570387
vt 0.692990 0.021645
vt 0.401642 0.485300
vt 0.683503 0.427733
vt 0.692990 0.110147
vt 0.850480 0.225287
vt 0.634110 0.051267
vt 0.830958 0.093495
vt 0.860217 0.093495
vt 0.167714 0.898978
vt 0.634110 0.080525
vt 0.855373 0.550633
vt 0.663368 0.051267
vt 0.821221 0.225287
vt 0.196973 0.898978
vt 0.663368 0.080525
vt 0.826114 0.550633
vt 0.850480 0.153437
vt 0.830958 0.021645
vt 0.827885 0.893987
vt 0.167714 0.827127
vt 0.860217 0.021645
vt 0.827885 0.923245
vt 0.821221 0.153437
vt 0.855373 0.478783
vt 0.798626 0.893987
vt 0.196973 0.827127
vt 0.798626 0.923245
vt 0.826114 0.478783
vt 0.505715 0.841556
vt 0.836187 0.885685
vt 0.313783 0.842802
vt 0.359646 0.842802
vt 0.836187 0.931547
vt 0.816985 0.396778
vt 0.836187 0.842395
vt 0.790324 0.885685
vt 0.459853 0.841556
vt 0.862847 0.396778
vt 0.790325 0.842395
vt 0.790324 0.931547
vt 0.880517 0.614574
vt 0.462453 0.887445
vt 0.062307 0.864852
vt 0.021645 0.864852
vt 0.920139 0.867846
vt 0.462453 0.928108
vt 0.879476 0.769487
vt 0.503115 0.887445
vt 0.921179 0.614574
vt 0.879476 0.867846
vt 0.503115 0.928108
vt 0.920139 0.769487
vt 0.313783 0.769894
vt 0.505715 0.768647
vt 0.459853 0.884845
vt 0.359646 0.769894
vt 0.816985 0.323870
vt 0.459853 0.930708
vt 0.836187 0.769487
vt 0.459853 0.768647
vt 0.505715 0.884845
vt 0.790325 0.769487
vt 0.862847 0.323870
vt 0.505715 0.930708
vt 0.667796 0.886157
vt 0.880517 0.669643
vt 0.062307 0.919921
vt 0.920139 0.922915
vt 0.667796 0.926819
vt 0.021645 0.919921
vt 0.708458 0.886157
vt 0.921179 0.669643
vt 0.879476 0.824556
vt 0.879476 0.922915
vt 0.708458 0.926819
vt 0.920139 0.824556
s 0
f 2/3/1 3/7/1 1/1/1
f 4/9/2 7/17/2 3/6/2
f 8/19/3 5/12/3 7/16/3
f 6/14/4 1/2/4 5/11/4
f 7/17/2 49/141/2 3/6/2
f 4/10/5 11/29/5 8/20/5
f 11/28/3 16/42/3 12/30/3
f 8/20/5 12/31/5 6/15/5
f 2/5/5 10/25/5 4/10/5
f 6/15/5 9/22/5 2/5/5
f 16/43/5 17/46/5 13/35/5
f 9/23/1 14/36/1 10/24/1
f 12/32/4 13/34/4 9/21/4
f 10/26/2 15/40/2 11/27/2
f 19/52/3 24/66/3 20/54/3
f 14/38/5 19/53/5 15/41/5
f 15/41/5 20/55/5 16/43/5
f 13/35/5 18/49/5 14/38/5
f 24/67/5 25/70/5 21/59/5
f 17/47/1 22/60/1 18/48/1
f 20/56/4 21/58/4 17/45/4
f 18/50/2 23/64/2 19/51/2
f 27/76/3 36/102/3 28/78/3
f 22/62/5 27/77/5 23/65/5
f 23/65/5 28/79/5 24/67/5
f 21/59/5 26/73/5 22/62/5
f 29/82/1 42/120/1 30/84/1
f 25/71/1 34/96/1 26/72/1
f 28/80/4 33/94/4 25/69/4
f 26/74/2 35/100/2 27/75/2
f 30/85/5 33/95/5 29/83/5
f 31/88/5 34/98/5 30/85/5
f 32/91/5 35/101/5 31/88/5
f 29/83/5 36/104/5 32/91/5
f 37/106/1 46/132/1 38/108/1
f 32/92/4 41/118/4 29/81/4
f 30/86/2 43/123/2 31/87/2
f 31/89/3 44/127/3 32/90/3
f 38/109/5 41/119/5 37/107/5
f 39/112/5 42/122/5 38/109/5
f 40/115/5 43/125/5 39/112/5
f 37/107/5 44/128/5 40/115/5
f 46/133/5 48/138/5 47/135/5
f 40/116/4 45/131/4 37/105/4
f 38/110/2 47/136/2 39/111/2
f 39/113/3 48/140/3 40/114/3
f 52/150/6 55/160/6 51/149/6
f 3/7/1 50/144/1 1/1/1
f 5/12/3 51/148/3 7/16/3
f 1/2/4 52/152/4 5/11/4
f 54/157/4 60/174/4 56/162/4
f 49/143/6 54/158/6 50/146/6
f 50/146/6 56/163/6 52/150/6
f 51/149/6 53/154/6 49/143/6
f 60/175/5 63/184/5 59/173/5
f 55/161/2 57/165/2 53/153/2
f 56/164/3 59/172/3 55/159/3
f 53/155/1 58/169/1 54/156/1
f 61/178/1 66/191/1 62/180/1
f 57/167/5 62/181/5 58/170/5
f 58/170/5 64/187/5 60/175/5
f 59/173/5 61/179/5 57/167/5
f 66/192/4 72/206/4 68/195/4
f 62/182/4 68/195/4 64/186/4
f 63/185/2 65/189/2 61/177/2
f 64/188/3 67/193/3 63/183/3
f 71/205/5 76/219/5 75/216/5
f 67/194/2 69/197/2 65/189/2
f 68/196/3 71/204/3 67/193/3
f 65/190/1 70/201/1 66/191/1
f 74/213/4 84/242/4 76/218/4
f 70/202/5 73/210/5 74/214/5
f 72/208/5 74/214/5 76/219/5
f 69/199/5 75/216/5 73/210/5
f 80/231/7 87/251/7 79/227/7
f 75/217/2 81/233/2 73/209/2
f 76/220/3 83/240/3 75/215/3
f 73/211/1 82/237/1 74/212/1
f 78/225/6 81/235/6 77/222/6
f 77/222/6 83/241/6 79/228/6
f 79/228/6 84/244/6 80/232/6
f 80/232/6 82/238/6 78/225/6
f 85/245/6 90/262/6 86/250/6
f 77/223/8 86/248/8 78/224/8
f 78/226/9 88/255/9 80/230/9
f 79/229/10 85/247/10 77/221/10
f 90/261/4 96/278/4 92/266/4
f 86/250/6 92/267/6 88/256/6
f 87/253/6 89/258/6 85/245/6
f 88/256/6 91/264/6 87/253/6
f 96/279/5 99/288/5 95/277/5
f 91/265/2 93/269/2 89/257/2
f 92/268/3 95/276/3 91/263/3
f 89/259/1 94/273/1 90/260/1
f 100/291/3 107/311/3 99/287/3
f 93/271/5 98/285/5 94/274/5
f 94/274/5 100/292/5 96/279/5
f 95/277/5 97/282/5 93/271/5
f 102/297/2 112/326/2 104/302/2
f 97/283/1 106/308/1 98/284/1
f 98/286/4 108/315/4 100/290/4
f 99/289/2 105/306/2 97/281/2
f 102/298/6 105/307/6 101/294/6
f 101/294/6 107/313/6 103/300/6
f 103/300/6 108/316/6 104/303/6
f 104/303/6 106/310/6 102/298/6
f 111/323/6 110/321/6 109/317/6
f 103/301/4 109/318/4 101/293/4
f 104/304/1 111/325/1 103/299/1
f 101/295/3 110/322/3 102/296/3
f 2/3/1 4/8/1 3/7/1
f 4/9/2 8/18/2 7/17/2
f 8/19/3 6/13/3 5/12/3
f 6/14/4 2/4/4 1/2/4
f 7/17/2 51/147/2 49/141/2
f 4/10/5 10/25/5 11/29/5
f 11/28/3 15/39/3 16/42/3
f 8/20/5 11/29/5 12/31/5
f 2/5/5 9/22/5 10/25/5
f 6/15/5 12/31/5 9/22/5
f 16/43/5 20/55/5 17/46/5
f 9/23/1 13/33/1 14/36/1
f 12/32/4 16/44/4 13/34/4
f 10/26/2 14/37/2 15/40/2
f 19/52/3 23/63/3 24/66/3
f 14/38/5 18/49/5 19/53/5
f 15/41/5 19/53/5 20/55/5
f 13/35/5 17/46/5 18/49/5
f 24/67/5 28/79/5 25/70/5
f 17/47/1 21/57/1 22/60/1
f 20/56/4 24/68/4 21/58/4
f 18/50/2 22/61/2 23/64/2
f 27/76/3 35/99/3 36/102/3
f 22/62/5 26/73/5 27/77/5
f 23/65/5 27/77/5 28/79/5
f 21/59/5 25/70/5 26/73/5
f 29/82/1 41/117/1 42/120/1
f 25/71/1 33/93/1 34/96/1
f 28/80/4 36/103/4 33/94/4
f 26/74/2 34/97/2 35/100/2
f 30/85/5 34/98/5 33/95/5
f 31/88/5 35/101/5 34/98/5
f 32/91/5 36/104/5 35/101/5
f 29/83/5 33/95/5 36/104/5
f 37/106/1 45/129/1 46/132/1
f 32/92/4 44/126/4 41/118/4
f 30/86/2 42/121/2 43/123/2
f 31/89/3 43/124/3 44/127/3
f 38/109/5 42/122/5 41/119/5
f 39/112/5 43/125/5 42/122/5
f 40/115/5 44/128/5 43/125/5
f 37/107/5 41/119/5 44/128/5
f 46/133/5 45/130/5 48/138/5
f 40/116/4 48/139/4 45/131/4
f 38/110/2 46/134/2 47/136/2
f 39/113/3 47/137/3 48/140/3
f 52/150/6 56/163/6 55/160/6
f 3/7/1 49/142/1 50/144/1
f 5/12/3 52/151/3 51/148/3
f 1/2/4 50/145/4 52/152/4
f 54/157/4 58/168/4 60/174/4
f 49/143/6 53/154/6 54/158/6
f 50/146/6 54/158/6 56/163/6
f 51/149/6 55/160/6 53/154/6
f 60/175/5 64/187/5 63/184/5
f 55/161/2 59/171/2 57/165/2
f 56/164/3 60/176/3 59/172/3
f 53/155/1 57/166/1 58/169/1
f 61/178/1 65/190/1 66/191/1
f 57/167/5 61/179/5 62/181/5
f 58/170/5 62/181/5 64/187/5
f 59/173/5 63/184/5 61/179/5
f 66/192/4 70/200/4 72/206/4
f 62/182/4 66/192/4 68/195/4
f 63/185/2 67/194/2 65/189/2
f 64/188/3 68/196/3 67/193/3
f 71/205/5 72/208/5 76/219/5
f 67/194/2 71/203/2 69/197/2
f 68/196/3 72/207/3 71/204/3
f 65/190/1 69/198/1 70/201/1
f 74/213/4 82/236/4 84/242/4
f 70/202/5 69/199/5 73/210/5
f 72/208/5 70/202/5 74/214/5
f 69/199/5 71/205/5 75/216/5
f 80/231/7 88/254/7 87/251/7
f 75/217/2 83/239/2 81/233/2
f 76/220/3 84/243/3 83/240/3
f 73/211/1 81/234/1 82/237/1
f 78/225/6 82/238/6 81/235/6
f 77/222/6 81/235/6 83/241/6
f 79/228/6 83/241/6 84/244/6
f 80/232/6 84/244/6 82/238/6
f 85/245/6 89/258/6 90/262/6
f 77/223/8 85/246/8 86/248/8
f 78/226/9 86/249/9 88/255/9
f 79/229/10 87/252/10 85/247/10
f 90/261/4 94/272/4 96/278/4
f 86/250/6 90/262/6 92/267/6
f 87/253/6 91/264/6 89/258/6
f 88/256/6 92/267/6 91/264/6
f 96/279/5 100/292/5 99/288/5
f 91/265/2 95/275/2 93/269/2
f 92/268/3 96/280/3 95/276/3
f 89/259/1 93/270/1 94/273/1
f 100/291/3 108/314/3 107/311/3
f 93/271/5 97/282/5 98/285/5
f 94/274/5 98/285/5 100/292/5
f 95/277/5 99/288/5 97/282/5
f 102/297/2 110/320/2 112/326/2
f 97/283/1 105/305/1 106/308/1
f 98/286/4 106/309/4 108/315/4
f 99/289/2 107/312/2 105/306/2
f 102/298/6 106/310/6 105/307/6
f 101/294/6 105/307/6 107/313/6
f 103/300/6 107/313/6 108/316/6
f 104/303/6 108/316/6 106/310/6
f 111/323/6 112/327/6 110/321/6
f 103/301/4 111/324/4 109/318/4
f 104/304/1 112/328/1 111/325/1
f 101/295/3 109/319/3 110/322/3
